<svg viewBox="0 0 40 62" shape-rendering="crispEdges" xmlns="http://www.w3.org/2000/svg" role="img"><rect x="29" y="2" width="2" height="1" fill="#2a1710"/><rect x="28" y="3" width="1" height="1" fill="#2a1710"/><rect x="29" y="3" width="2" height="1" fill="#ffd23f"/><rect x="31" y="3" width="1" height="1" fill="#2a1710"/><rect x="27" y="4" width="1" height="1" fill="#2a1710"/><rect x="28" y="4" width="3" height="1" fill="#ffd23f"/><rect x="31" y="4" width="1" height="1" fill="#2a1710"/><rect x="27" y="5" width="1" height="1" fill="#2a1710"/><rect x="28" y="5" width="3" height="1" fill="#ffd23f"/><rect x="31" y="5" width="1" height="1" fill="#2a1710"/><rect x="28" y="6" width="3" height="1" fill="#2a1710"/><rect x="27" y="7" width="1" height="1" fill="#2a1710"/><rect x="28" y="7" width="1" height="1" fill="#e9b78e"/><rect x="29" y="7" width="1" height="1" fill="#2a1710"/><rect x="26" y="8" width="1" height="1" fill="#2a1710"/><rect x="27" y="8" width="3" height="1" fill="#e9b78e"/><rect x="30" y="8" width="1" height="1" fill="#2a1710"/><rect x="26" y="9" width="1" height="1" fill="#2a1710"/><rect x="27" y="9" width="3" height="1" fill="#e9b78e"/><rect x="30" y="9" width="1" height="1" fill="#2a1710"/><rect x="19" y="10" width="2" height="1" fill="#2a1710"/><rect x="26" y="10" width="1" height="1" fill="#2a1710"/><rect x="27" y="10" width="3" height="1" fill="#e9b78e"/><rect x="30" y="10" width="1" height="1" fill="#2a1710"/><rect x="16" y="11" width="3" height="1" fill="#2a1710"/><rect x="19" y="11" width="2" height="1" fill="#1d1311"/><rect x="21" y="11" width="3" height="1" fill="#2a1710"/><rect x="26" y="11" width="1" height="1" fill="#2a1710"/><rect x="27" y="11" width="3" height="1" fill="#e9b78e"/><rect x="30" y="11" width="1" height="1" fill="#2a1710"/><rect x="15" y="12" width="1" height="1" fill="#2a1710"/><rect x="16" y="12" width="8" height="1" fill="#1d1311"/><rect x="24" y="12" width="1" height="1" fill="#2a1710"/><rect x="26" y="12" width="1" height="1" fill="#2a1710"/><rect x="27" y="12" width="3" height="1" fill="#e9b78e"/><rect x="30" y="12" width="1" height="1" fill="#2a1710"/><rect x="14" y="13" width="1" height="1" fill="#2a1710"/><rect x="15" y="13" width="10" height="1" fill="#1d1311"/><rect x="25" y="13" width="2" height="1" fill="#2a1710"/><rect x="27" y="13" width="3" height="1" fill="#e9b78e"/><rect x="30" y="13" width="1" height="1" fill="#2a1710"/><rect x="14" y="14" width="1" height="1" fill="#2a1710"/><rect x="15" y="14" width="10" height="1" fill="#1d1311"/><rect x="25" y="14" width="1" height="1" fill="#2a1710"/><rect x="26" y="14" width="4" height="1" fill="#e9b78e"/><rect x="30" y="14" width="1" height="1" fill="#2a1710"/><rect x="14" y="15" width="1" height="1" fill="#2a1710"/><rect x="15" y="15" width="10" height="1" fill="#1d1311"/><rect x="25" y="15" width="1" height="1" fill="#2a1710"/><rect x="26" y="15" width="3" height="1" fill="#e9b78e"/><rect x="29" y="15" width="1" height="1" fill="#2a1710"/><rect x="14" y="16" width="1" height="1" fill="#2a1710"/><rect x="15" y="16" width="1" height="1" fill="#e9b78e"/><rect x="16" y="16" width="1" height="1" fill="#1d1311"/><rect x="17" y="16" width="6" height="1" fill="#e9b78e"/><rect x="23" y="16" width="1" height="1" fill="#1d1311"/><rect x="24" y="16" width="1" height="1" fill="#e9b78e"/><rect x="25" y="16" width="1" height="1" fill="#2a1710"/><rect x="26" y="16" width="3" height="1" fill="#e9b78e"/><rect x="29" y="16" width="1" height="1" fill="#2a1710"/><rect x="8" y="17" width="2" height="1" fill="#2a1710"/><rect x="14" y="17" width="1" height="1" fill="#2a1710"/><rect x="15" y="17" width="2" height="1" fill="#e9b78e"/><rect x="17" y="17" width="2" height="1" fill="#1b1210"/><rect x="19" y="17" width="2" height="1" fill="#e9b78e"/><rect x="21" y="17" width="2" height="1" fill="#1b1210"/><rect x="23" y="17" width="2" height="1" fill="#e9b78e"/><rect x="25" y="17" width="1" height="1" fill="#2a1710"/><rect x="26" y="17" width="3" height="1" fill="#e9b78e"/><rect x="29" y="17" width="1" height="1" fill="#2a1710"/><rect x="6" y="18" width="2" height="1" fill="#2a1710"/><rect x="8" y="18" width="2" height="1" fill="#2b2b2b"/><rect x="10" y="18" width="1" height="1" fill="#2a1710"/><rect x="14" y="18" width="1" height="1" fill="#2a1710"/><rect x="15" y="18" width="10" height="1" fill="#e9b78e"/><rect x="25" y="18" width="1" height="1" fill="#2a1710"/><rect x="26" y="18" width="3" height="1" fill="#e9b78e"/><rect x="29" y="18" width="1" height="1" fill="#2a1710"/><rect x="5" y="19" width="1" height="1" fill="#2a1710"/><rect x="6" y="19" width="2" height="1" fill="#2b2b2b"/><rect x="8" y="19" width="1" height="1" fill="#c8e24c"/><rect x="9" y="19" width="2" height="1" fill="#2b2b2b"/><rect x="11" y="19" width="1" height="1" fill="#2a1710"/><rect x="14" y="19" width="1" height="1" fill="#2a1710"/><rect x="15" y="19" width="1" height="1" fill="#e9b78e"/><rect x="16" y="19" width="2" height="1" fill="#2a1a14"/><rect x="18" y="19" width="4" height="1" fill="#e9b78e"/><rect x="22" y="19" width="2" height="1" fill="#2a1a14"/><rect x="24" y="19" width="1" height="1" fill="#e9b78e"/><rect x="25" y="19" width="1" height="1" fill="#2a1710"/><rect x="26" y="19" width="3" height="1" fill="#e9b78e"/><rect x="29" y="19" width="1" height="1" fill="#2a1710"/><rect x="5" y="20" width="1" height="1" fill="#2a1710"/><rect x="6" y="20" width="1" height="1" fill="#2b2b2b"/><rect x="7" y="20" width="4" height="1" fill="#c8e24c"/><rect x="11" y="20" width="1" height="1" fill="#2b2b2b"/><rect x="12" y="20" width="1" height="1" fill="#2a1710"/><rect x="15" y="20" width="1" height="1" fill="#2a1710"/><rect x="16" y="20" width="8" height="1" fill="#2a1a14"/><rect x="24" y="20" width="1" height="1" fill="#2a1710"/><rect x="25" y="20" width="4" height="1" fill="#e9b78e"/><rect x="29" y="20" width="1" height="1" fill="#2a1710"/><rect x="4" y="21" width="1" height="1" fill="#2a1710"/><rect x="5" y="21" width="1" height="1" fill="#2b2b2b"/><rect x="6" y="21" width="5" height="1" fill="#c8e24c"/><rect x="11" y="21" width="1" height="1" fill="#2b2b2b"/><rect x="12" y="21" width="1" height="1" fill="#2a1710"/><rect x="15" y="21" width="1" height="1" fill="#2a1710"/><rect x="16" y="21" width="2" height="1" fill="#2a1a14"/><rect x="18" y="21" width="4" height="1" fill="#f3d0b6"/><rect x="22" y="21" width="2" height="1" fill="#2a1a14"/><rect x="24" y="21" width="1" height="1" fill="#2a1710"/><rect x="25" y="21" width="3" height="1" fill="#e9b78e"/><rect x="28" y="21" width="1" height="1" fill="#2a1710"/><rect x="4" y="22" width="1" height="1" fill="#2a1710"/><rect x="5" y="22" width="1" height="1" fill="#2b2b2b"/><rect x="6" y="22" width="6" height="1" fill="#c8e24c"/><rect x="12" y="22" width="1" height="1" fill="#2b2b2b"/><rect x="13" y="22" width="1" height="1" fill="#2a1710"/><rect x="15" y="22" width="1" height="1" fill="#2a1710"/><rect x="16" y="22" width="8" height="1" fill="#2a1a14"/><rect x="24" y="22" width="4" height="1" fill="#a9c9f0"/><rect x="28" y="22" width="1" height="1" fill="#2a1710"/><rect x="4" y="23" width="1" height="1" fill="#2a1710"/><rect x="5" y="23" width="1" height="1" fill="#2b2b2b"/><rect x="6" y="23" width="6" height="1" fill="#c8e24c"/><rect x="12" y="23" width="1" height="1" fill="#2b2b2b"/><rect x="13" y="23" width="4" height="1" fill="#2a1710"/><rect x="17" y="23" width="6" height="1" fill="#2a1a14"/><rect x="23" y="23" width="1" height="1" fill="#2a1710"/><rect x="24" y="23" width="4" height="1" fill="#a9c9f0"/><rect x="28" y="23" width="1" height="1" fill="#2a1710"/><rect x="4" y="24" width="1" height="1" fill="#2a1710"/><rect x="5" y="24" width="1" height="1" fill="#2b2b2b"/><rect x="6" y="24" width="6" height="1" fill="#c8e24c"/><rect x="12" y="24" width="1" height="1" fill="#2b2b2b"/><rect x="13" y="24" width="1" height="1" fill="#2a1710"/><rect x="14" y="24" width="3" height="1" fill="#a9c9f0"/><rect x="17" y="24" width="6" height="1" fill="#2a1710"/><rect x="23" y="24" width="5" height="1" fill="#a9c9f0"/><rect x="28" y="24" width="1" height="1" fill="#2a1710"/><rect x="4" y="25" width="1" height="1" fill="#2a1710"/><rect x="5" y="25" width="1" height="1" fill="#2b2b2b"/><rect x="6" y="25" width="6" height="1" fill="#c8e24c"/><rect x="12" y="25" width="1" height="1" fill="#2b2b2b"/><rect x="13" y="25" width="14" height="1" fill="#a9c9f0"/><rect x="27" y="25" width="1" height="1" fill="#2a1710"/><rect x="4" y="26" width="1" height="1" fill="#2a1710"/><rect x="5" y="26" width="2" height="1" fill="#2b2b2b"/><rect x="7" y="26" width="4" height="1" fill="#c8e24c"/><rect x="11" y="26" width="1" height="1" fill="#2b2b2b"/><rect x="12" y="26" width="15" height="1" fill="#a9c9f0"/><rect x="27" y="26" width="1" height="1" fill="#2a1710"/><rect x="5" y="27" width="1" height="1" fill="#2a1710"/><rect x="6" y="27" width="1" height="1" fill="#2b2b2b"/><rect x="7" y="27" width="4" height="1" fill="#c8e24c"/><rect x="11" y="27" width="1" height="1" fill="#2b2b2b"/><rect x="12" y="27" width="14" height="1" fill="#a9c9f0"/><rect x="26" y="27" width="1" height="1" fill="#2a1710"/><rect x="6" y="28" width="1" height="1" fill="#2a1710"/><rect x="7" y="28" width="4" height="1" fill="#2b2b2b"/><rect x="11" y="28" width="1" height="1" fill="#e9b78e"/><rect x="12" y="28" width="13" height="1" fill="#a9c9f0"/><rect x="25" y="28" width="1" height="1" fill="#2a1710"/><rect x="7" y="29" width="2" height="1" fill="#2a1710"/><rect x="9" y="29" width="1" height="1" fill="#2b2b2b"/><rect x="10" y="29" width="1" height="1" fill="#2a1710"/><rect x="11" y="29" width="2" height="1" fill="#e9b78e"/><rect x="13" y="29" width="12" height="1" fill="#a9c9f0"/><rect x="25" y="29" width="1" height="1" fill="#2a1710"/><rect x="8" y="30" width="1" height="1" fill="#2a1710"/><rect x="9" y="30" width="1" height="1" fill="#2b2b2b"/><rect x="10" y="30" width="4" height="1" fill="#e9b78e"/><rect x="14" y="30" width="1" height="1" fill="#2a1710"/><rect x="15" y="30" width="10" height="1" fill="#a9c9f0"/><rect x="25" y="30" width="1" height="1" fill="#2a1710"/><rect x="8" y="31" width="1" height="1" fill="#2a1710"/><rect x="9" y="31" width="1" height="1" fill="#2b2b2b"/><rect x="10" y="31" width="3" height="1" fill="#e9b78e"/><rect x="13" y="31" width="2" height="1" fill="#2a1710"/><rect x="15" y="31" width="10" height="1" fill="#a9c9f0"/><rect x="25" y="31" width="1" height="1" fill="#2a1710"/><rect x="8" y="32" width="1" height="1" fill="#2a1710"/><rect x="9" y="32" width="3" height="1" fill="#e9b78e"/><rect x="12" y="32" width="1" height="1" fill="#2a1710"/><rect x="14" y="32" width="1" height="1" fill="#2a1710"/><rect x="15" y="32" width="10" height="1" fill="#a9c9f0"/><rect x="25" y="32" width="1" height="1" fill="#2a1710"/><rect x="8" y="33" width="1" height="1" fill="#2a1710"/><rect x="9" y="33" width="3" height="1" fill="#e9b78e"/><rect x="12" y="33" width="1" height="1" fill="#2a1710"/><rect x="14" y="33" width="1" height="1" fill="#2a1710"/><rect x="15" y="33" width="10" height="1" fill="#a9c9f0"/><rect x="25" y="33" width="1" height="1" fill="#2a1710"/><rect x="7" y="34" width="1" height="1" fill="#2a1710"/><rect x="8" y="34" width="4" height="1" fill="#e9b78e"/><rect x="12" y="34" width="1" height="1" fill="#2a1710"/><rect x="14" y="34" width="1" height="1" fill="#2a1710"/><rect x="15" y="34" width="10" height="1" fill="#a9c9f0"/><rect x="25" y="34" width="1" height="1" fill="#2a1710"/><rect x="7" y="35" width="1" height="1" fill="#2a1710"/><rect x="8" y="35" width="3" height="1" fill="#e9b78e"/><rect x="11" y="35" width="1" height="1" fill="#2a1710"/><rect x="14" y="35" width="1" height="1" fill="#2a1710"/><rect x="15" y="35" width="10" height="1" fill="#a9c9f0"/><rect x="25" y="35" width="1" height="1" fill="#2a1710"/><rect x="7" y="36" width="1" height="1" fill="#2a1710"/><rect x="8" y="36" width="3" height="1" fill="#e9b78e"/><rect x="11" y="36" width="1" height="1" fill="#2a1710"/><rect x="14" y="36" width="1" height="1" fill="#2a1710"/><rect x="15" y="36" width="10" height="1" fill="#a9c9f0"/><rect x="25" y="36" width="1" height="1" fill="#2a1710"/><rect x="8" y="37" width="3" height="1" fill="#2a1710"/><rect x="14" y="37" width="1" height="1" fill="#2a1710"/><rect x="15" y="37" width="10" height="1" fill="#a9c9f0"/><rect x="25" y="37" width="1" height="1" fill="#2a1710"/><rect x="14" y="38" width="1" height="1" fill="#2a1710"/><rect x="15" y="38" width="10" height="1" fill="#5d5b2c"/><rect x="25" y="38" width="1" height="1" fill="#2a1710"/><rect x="14" y="39" width="1" height="1" fill="#2a1710"/><rect x="15" y="39" width="10" height="1" fill="#5d5b2c"/><rect x="25" y="39" width="1" height="1" fill="#2a1710"/><rect x="13" y="40" width="1" height="1" fill="#2a1710"/><rect x="14" y="40" width="12" height="1" fill="#5d5b2c"/><rect x="26" y="40" width="1" height="1" fill="#2a1710"/><rect x="13" y="41" width="1" height="1" fill="#2a1710"/><rect x="14" y="41" width="12" height="1" fill="#5d5b2c"/><rect x="26" y="41" width="1" height="1" fill="#2a1710"/><rect x="13" y="42" width="1" height="1" fill="#2a1710"/><rect x="14" y="42" width="12" height="1" fill="#5d5b2c"/><rect x="26" y="42" width="1" height="1" fill="#2a1710"/><rect x="12" y="43" width="1" height="1" fill="#2a1710"/><rect x="13" y="43" width="14" height="1" fill="#5d5b2c"/><rect x="27" y="43" width="1" height="1" fill="#2a1710"/><rect x="12" y="44" width="1" height="1" fill="#2a1710"/><rect x="13" y="44" width="14" height="1" fill="#5d5b2c"/><rect x="27" y="44" width="1" height="1" fill="#2a1710"/><rect x="13" y="45" width="1" height="1" fill="#2a1710"/><rect x="14" y="45" width="4" height="1" fill="#e9b78e"/><rect x="18" y="45" width="5" height="1" fill="#2a1710"/><rect x="23" y="45" width="4" height="1" fill="#e9b78e"/><rect x="27" y="45" width="1" height="1" fill="#2a1710"/><rect x="13" y="46" width="1" height="1" fill="#2a1710"/><rect x="14" y="46" width="4" height="1" fill="#e9b78e"/><rect x="18" y="46" width="1" height="1" fill="#2a1710"/><rect x="22" y="46" width="1" height="1" fill="#2a1710"/><rect x="23" y="46" width="4" height="1" fill="#e9b78e"/><rect x="27" y="46" width="1" height="1" fill="#2a1710"/><rect x="12" y="47" width="1" height="1" fill="#2a1710"/><rect x="13" y="47" width="4" height="1" fill="#e9b78e"/><rect x="17" y="47" width="1" height="1" fill="#2a1710"/><rect x="23" y="47" width="1" height="1" fill="#2a1710"/><rect x="24" y="47" width="4" height="1" fill="#e9b78e"/><rect x="28" y="47" width="1" height="1" fill="#2a1710"/><rect x="12" y="48" width="1" height="1" fill="#2a1710"/><rect x="13" y="48" width="4" height="1" fill="#e9b78e"/><rect x="17" y="48" width="1" height="1" fill="#2a1710"/><rect x="23" y="48" width="1" height="1" fill="#2a1710"/><rect x="24" y="48" width="4" height="1" fill="#e9b78e"/><rect x="28" y="48" width="1" height="1" fill="#2a1710"/><rect x="12" y="49" width="1" height="1" fill="#2a1710"/><rect x="13" y="49" width="3" height="1" fill="#e9b78e"/><rect x="16" y="49" width="1" height="1" fill="#2a1710"/><rect x="24" y="49" width="1" height="1" fill="#2a1710"/><rect x="25" y="49" width="3" height="1" fill="#e9b78e"/><rect x="28" y="49" width="1" height="1" fill="#2a1710"/><rect x="12" y="50" width="1" height="1" fill="#2a1710"/><rect x="13" y="50" width="4" height="1" fill="#e9b78e"/><rect x="17" y="50" width="1" height="1" fill="#2a1710"/><rect x="23" y="50" width="1" height="1" fill="#2a1710"/><rect x="24" y="50" width="4" height="1" fill="#e9b78e"/><rect x="28" y="50" width="1" height="1" fill="#2a1710"/><rect x="12" y="51" width="1" height="1" fill="#2a1710"/><rect x="13" y="51" width="4" height="1" fill="#e9b78e"/><rect x="17" y="51" width="1" height="1" fill="#2a1710"/><rect x="23" y="51" width="1" height="1" fill="#2a1710"/><rect x="24" y="51" width="4" height="1" fill="#e9b78e"/><rect x="28" y="51" width="1" height="1" fill="#2a1710"/><rect x="13" y="52" width="1" height="1" fill="#2a1710"/><rect x="14" y="52" width="3" height="1" fill="#e9b78e"/><rect x="17" y="52" width="1" height="1" fill="#2a1710"/><rect x="23" y="52" width="1" height="1" fill="#2a1710"/><rect x="24" y="52" width="3" height="1" fill="#e9b78e"/><rect x="27" y="52" width="1" height="1" fill="#2a1710"/><rect x="13" y="53" width="1" height="1" fill="#2a1710"/><rect x="14" y="53" width="1" height="1" fill="#e9b78e"/><rect x="15" y="53" width="3" height="1" fill="#f6f2ec"/><rect x="18" y="53" width="1" height="1" fill="#2a1710"/><rect x="23" y="53" width="1" height="1" fill="#2a1710"/><rect x="24" y="53" width="2" height="1" fill="#f6f2ec"/><rect x="26" y="53" width="1" height="1" fill="#e9b78e"/><rect x="27" y="53" width="1" height="1" fill="#2a1710"/><rect x="13" y="54" width="1" height="1" fill="#2a1710"/><rect x="14" y="54" width="4" height="1" fill="#f6f2ec"/><rect x="18" y="54" width="1" height="1" fill="#2a1710"/><rect x="22" y="54" width="1" height="1" fill="#2a1710"/><rect x="23" y="54" width="4" height="1" fill="#f6f2ec"/><rect x="27" y="54" width="1" height="1" fill="#2a1710"/><rect x="13" y="55" width="1" height="1" fill="#2a1710"/><rect x="14" y="55" width="4" height="1" fill="#f6f2ec"/><rect x="18" y="55" width="1" height="1" fill="#2a1710"/><rect x="22" y="55" width="1" height="1" fill="#2a1710"/><rect x="23" y="55" width="4" height="1" fill="#f6f2ec"/><rect x="27" y="55" width="1" height="1" fill="#2a1710"/><rect x="14" y="56" width="1" height="1" fill="#2a1710"/><rect x="15" y="56" width="4" height="1" fill="#f6f2ec"/><rect x="19" y="56" width="1" height="1" fill="#2a1710"/><rect x="22" y="56" width="1" height="1" fill="#2a1710"/><rect x="23" y="56" width="3" height="1" fill="#f6f2ec"/><rect x="26" y="56" width="1" height="1" fill="#2a1710"/><rect x="13" y="57" width="1" height="1" fill="#2a1710"/><rect x="14" y="57" width="6" height="1" fill="#4d4bb0"/><rect x="20" y="57" width="2" height="1" fill="#2a1710"/><rect x="22" y="57" width="5" height="1" fill="#4d4bb0"/><rect x="27" y="57" width="1" height="1" fill="#2a1710"/><rect x="13" y="58" width="1" height="1" fill="#2a1710"/><rect x="14" y="58" width="6" height="1" fill="#4d4bb0"/><rect x="20" y="58" width="1" height="1" fill="#2a1710"/><rect x="21" y="58" width="6" height="1" fill="#4d4bb0"/><rect x="27" y="58" width="1" height="1" fill="#2a1710"/><rect x="13" y="59" width="1" height="1" fill="#2a1710"/><rect x="14" y="59" width="5" height="1" fill="#4d4bb0"/><rect x="19" y="59" width="1" height="1" fill="#2a1710"/><rect x="21" y="59" width="1" height="1" fill="#2a1710"/><rect x="22" y="59" width="5" height="1" fill="#4d4bb0"/><rect x="27" y="59" width="1" height="1" fill="#2a1710"/><rect x="14" y="60" width="5" height="1" fill="#2a1710"/><rect x="22" y="60" width="5" height="1" fill="#2a1710"/></svg>