<svg viewBox="-2 -10 104 162" xmlns="http://www.w3.org/2000/svg" role="img"><path d="M38.0 58.0 L30.0 76.0 L54.0 78.0" fill="none" stroke="#2a1710" stroke-width="12.4" stroke-linecap="round" stroke-linejoin="round"/><path d="M38.0 58.0 L30.0 76.0 L54.0 78.0" fill="none" stroke="#e9b78e" stroke-width="8.0" stroke-linecap="round" stroke-linejoin="round"/><path d="M38.0 58.0 L35.3 64.0" fill="none" stroke="#2a1710" stroke-width="14.8" stroke-linecap="round" stroke-linejoin="round"/><path d="M38.0 58.0 L35.3 64.0" fill="none" stroke="#62d3cf" stroke-width="10.4" stroke-linecap="round" stroke-linejoin="round"/><ellipse cx="54.0" cy="78.0" rx="4.6" ry="4.6" fill="#e9b78e" stroke="#2a1710" stroke-width="2.2" transform="rotate(0 54.0 78.0)"/><path d="M44.0 100.0 L34.0 118.0 L26.0 139.0" fill="none" stroke="#2a1710" stroke-width="13.4" stroke-linecap="round" stroke-linejoin="round"/><path d="M44.0 100.0 L34.0 118.0 L26.0 139.0" fill="none" stroke="#e9b78e" stroke-width="9.0" stroke-linecap="round" stroke-linejoin="round"/><path d="M28.4 132.7 L26.0 139.0" fill="none" stroke="#2a1710" stroke-width="14.2" stroke-linecap="round" stroke-linejoin="round"/><path d="M28.4 132.7 L26.0 139.0" fill="none" stroke="#f6f2ec" stroke-width="9.8" stroke-linecap="round" stroke-linejoin="round"/><ellipse cx="26.0" cy="142.0" rx="8.0" ry="4.6" fill="#4d4bb0" stroke="#2a1710" stroke-width="2.2" transform="rotate(0 26.0 142.0)"/><path d="M58.0 100.0 L68.0 118.0 L76.0 139.0" fill="none" stroke="#2a1710" stroke-width="13.4" stroke-linecap="round" stroke-linejoin="round"/><path d="M58.0 100.0 L68.0 118.0 L76.0 139.0" fill="none" stroke="#e9b78e" stroke-width="9.0" stroke-linecap="round" stroke-linejoin="round"/><path d="M73.6 132.7 L76.0 139.0" fill="none" stroke="#2a1710" stroke-width="14.2" stroke-linecap="round" stroke-linejoin="round"/><path d="M73.6 132.7 L76.0 139.0" fill="none" stroke="#f6f2ec" stroke-width="9.8" stroke-linecap="round" stroke-linejoin="round"/><ellipse cx="76.0" cy="142.0" rx="8.0" ry="4.6" fill="#4d4bb0" stroke="#2a1710" stroke-width="2.2" transform="rotate(0 76.0 142.0)"/><polygon points="38.0,86.0 62.0,86.0 70.0,108.0 30.0,108.0" fill="#5d5b2c" stroke="#2a1710" stroke-width="2.2" stroke-linejoin="round"/><polygon points="36.0,54.0 64.0,54.0 62.0,90.0 38.0,90.0" fill="#62d3cf" stroke="#2a1710" stroke-width="2.2" stroke-linejoin="round"/><ellipse cx="50.0" cy="36.0" rx="12.5" ry="13.5" fill="#e9b78e" stroke="#2a1710" stroke-width="2.2" transform="rotate(0 50.0 36.0)"/><ellipse cx="50.0" cy="45.0" rx="11.5" ry="8.5" fill="#2a1a14" stroke="#2a1710" stroke-width="2.2" transform="rotate(0 50.0 45.0)"/><ellipse cx="50.0" cy="28.0" rx="13.2" ry="8.2" fill="#1d1311" stroke="#2a1710" stroke-width="2.2" transform="rotate(0 50.0 28.0)"/><ellipse cx="50.0" cy="36.0" rx="9.2" ry="5.6" fill="#e9b78e" transform="rotate(0 50.0 36.0)"/><ellipse cx="45.0" cy="35.5" rx="1.7" ry="1.9" fill="#1b1210" transform="rotate(0 45.0 35.5)"/><ellipse cx="55.0" cy="35.5" rx="1.7" ry="1.9" fill="#1b1210" transform="rotate(0 55.0 35.5)"/><path d="M46.5 45.0 L53.5 45.0" fill="none" stroke="#2a1710" stroke-width="6.4" stroke-linecap="round" stroke-linejoin="round"/><path d="M46.5 45.0 L53.5 45.0" fill="none" stroke="#f3d0b6" stroke-width="2.0" stroke-linecap="round" stroke-linejoin="round"/><path d="M62.0 58.0 L73.0 72.0 L58.0 78.0" fill="none" stroke="#2a1710" stroke-width="12.4" stroke-linecap="round" stroke-linejoin="round"/><path d="M62.0 58.0 L73.0 72.0 L58.0 78.0" fill="none" stroke="#e9b78e" stroke-width="8.0" stroke-linecap="round" stroke-linejoin="round"/><path d="M62.0 58.0 L65.7 62.7" fill="none" stroke="#2a1710" stroke-width="14.8" stroke-linecap="round" stroke-linejoin="round"/><path d="M62.0 58.0 L65.7 62.7" fill="none" stroke="#62d3cf" stroke-width="10.4" stroke-linecap="round" stroke-linejoin="round"/><ellipse cx="58.0" cy="78.0" rx="4.6" ry="4.6" fill="#e9b78e" stroke="#2a1710" stroke-width="2.2" transform="rotate(0 58.0 78.0)"/><path d="M57.0 78.0 L69.9 56.6" fill="none" stroke="#2a1710" stroke-width="7.6" stroke-linecap="round" stroke-linejoin="round"/><path d="M57.0 78.0 L69.9 56.6" fill="none" stroke="#2b2b2b" stroke-width="3.2" stroke-linecap="round" stroke-linejoin="round"/><ellipse cx="75.0" cy="48.0" rx="10.5" ry="14.5" fill="#2b2b2b" stroke="#2a1710" stroke-width="2.2" transform="rotate(35 75.0 48.0)"/><ellipse cx="75.0" cy="48.0" rx="7.6" ry="11.6" fill="#c8e24c" transform="rotate(35 75.0 48.0)"/></svg>